<mxfile host="app.diagrams.net" modified="2023-09-10T20:18:01.844Z" agent="Mozilla/5.0 (Windows NT 10.0; Win64; x64) AppleWebKit/537.36 (KHTML, like Gecko) Chrome/116.0.0.0 Safari/537.36" version="21.7.4" etag="Z6Wa6TKKIG2iOuKPDmiJ" type="github">
  <diagram name="PÃ¡gina-1" id="mP3t9d19tkTMGput6D93">
    <mxGraphModel>
      <root>
        <mxCell id="0" />
        <mxCell id="1" parent="0" />
      </root>
    </mxGraphModel>
  </diagram>
</mxfile>
